<svg id="visual" viewBox="0 0 900 600" width="900" height="600" xmlns="http://www.w3.org/2000/svg" xmlns:xlink="http://www.w3.org/1999/xlink" version="1.1"><g transform="translate(82.91367043679816 -53.6940224883671)"><path d="M166.3 -207.6C244.5 -172.1 356.7 -162.2 370.3 -120.3C383.9 -78.4 299 -4.4 247.5 57.6C196 119.7 177.9 169.9 142.3 246C106.6 322 53.3 424 -28 462.6C-109.3 501.1 -218.7 476.3 -313.8 419.5C-408.9 362.8 -489.8 274.1 -521.5 170.8C-553.2 67.5 -535.8 -50.5 -488.9 -147.7C-441.9 -245 -365.6 -321.5 -279.2 -354.3C-192.8 -387 -96.4 -376 -26.2 -340C44.1 -304 88.2 -243 166.3 -207.6" fill="#f7f7f7"></path></g></svg>